<?xml version="1.0" encoding="UTF-8" standalone="no"?>
<!-- Created with Inkscape (http://www.inkscape.org/) -->

<svg
   version="1.1"
   id="svg1"
   width="793.70135"
   height="1122.52"
   viewBox="0 0 793.70135 1122.52"
   sodipodi:docname="sckrlogo.svg"
   inkscape:version="1.4.2 (f4327f4, 2025-05-13)"
   xmlns:inkscape="http://www.inkscape.org/namespaces/inkscape"
   xmlns:sodipodi="http://sodipodi.sourceforge.net/DTD/sodipodi-0.dtd"
   xmlns="http://www.w3.org/2000/svg"
   xmlns:svg="http://www.w3.org/2000/svg">
  <defs
     id="defs1">
    <clipPath
       clipPathUnits="userSpaceOnUse"
       id="clipPath1">
      <path
         d="M 0,841.89 H 595.276 V 0 H 0 Z"
         transform="translate(-453.54331,-856.06302)"
         id="path1" />
    </clipPath>
    <clipPath
       clipPathUnits="userSpaceOnUse"
       id="clipPath2">
      <path
         d="M 0,841.89 H 595.276 V 0 H 0 Z"
         transform="translate(-453.54331,-28.346476)"
         id="path2" />
    </clipPath>
    <clipPath
       clipPathUnits="userSpaceOnUse"
       id="clipPath13">
      <path
         d="M 0,0 H 595.276 V 841.89 H 0 Z"
         transform="translate(-156.3403,-576.12022)"
         id="path13" />
    </clipPath>
    <clipPath
       clipPathUnits="userSpaceOnUse"
       id="clipPath15">
      <path
         d="M 0,0 H 595.276 V 841.89 H 0 Z"
         transform="translate(-160.87881,-590.55491)"
         id="path15" />
    </clipPath>
    <clipPath
       clipPathUnits="userSpaceOnUse"
       id="clipPath17">
      <path
         d="M 0,0 H 595.276 V 841.89 H 0 Z"
         transform="translate(-170.9647,-616.86892)"
         id="path17" />
    </clipPath>
    <clipPath
       clipPathUnits="userSpaceOnUse"
       id="clipPath19">
      <path
         d="M 0,0 H 595.276 V 841.89 H 0 Z"
         transform="translate(-184.0753,-615.26482)"
         id="path19" />
    </clipPath>
    <clipPath
       clipPathUnits="userSpaceOnUse"
       id="clipPath21">
      <path
         d="M 0,0 H 595.276 V 841.89 H 0 Z"
         transform="translate(-195.3247,-595.98442)"
         id="path21" />
    </clipPath>
    <clipPath
       clipPathUnits="userSpaceOnUse"
       id="clipPath25">
      <path
         d="M 0,0 H 595.276 V 841.89 H 0 Z"
         transform="translate(-156.3403,-235.96281)"
         id="path25" />
    </clipPath>
    <clipPath
       clipPathUnits="userSpaceOnUse"
       id="clipPath27">
      <path
         d="M 0,0 H 595.276 V 841.89 H 0 Z"
         transform="translate(-160.87881,-250.3975)"
         id="path27" />
    </clipPath>
    <clipPath
       clipPathUnits="userSpaceOnUse"
       id="clipPath29">
      <path
         d="M 0,0 H 595.276 V 841.89 H 0 Z"
         transform="translate(-170.9647,-276.7114)"
         id="path29" />
    </clipPath>
    <clipPath
       clipPathUnits="userSpaceOnUse"
       id="clipPath31">
      <path
         d="M 0,0 H 595.276 V 841.89 H 0 Z"
         transform="translate(-184.0753,-275.1073)"
         id="path31" />
    </clipPath>
    <clipPath
       clipPathUnits="userSpaceOnUse"
       id="clipPath33">
      <path
         d="M 0,0 H 595.276 V 841.89 H 0 Z"
         transform="translate(-195.3247,-255.8269)"
         id="path33" />
    </clipPath>
  </defs>
  <sodipodi:namedview
     id="namedview1"
     pagecolor="#ffffff"
     bordercolor="#000000"
     borderopacity="0.25"
     inkscape:showpageshadow="2"
     inkscape:pageopacity="0.0"
     inkscape:pagecheckerboard="0"
     inkscape:deskcolor="#d1d1d1"
     inkscape:zoom="0.71891812"
     inkscape:cx="396.42901"
     inkscape:cy="269.15443"
     inkscape:window-width="1920"
     inkscape:window-height="1009"
     inkscape:window-x="-8"
     inkscape:window-y="-8"
     inkscape:window-maximized="1"
     inkscape:current-layer="g1">
    <inkscape:page
       x="0"
       y="0"
       inkscape:label="9"
       id="page1"
       width="793.70135"
       height="1122.52"
       margin="0"
       bleed="0" />
  </sodipodi:namedview>
  <g
     id="g1"
     inkscape:groupmode="layer"
     inkscape:label="9">
    <path
       id="path12"
       d="m 0,0 -14.406,4.329 c 0.045,0.31 0.075,0.625 0.075,0.947 0,3.73 -3.023,6.753 -6.752,6.753 -3.731,0 -6.753,-3.023 -6.753,-6.753 0,-3.729 3.022,-6.753 6.753,-6.753 2.306,0 4.339,1.159 5.557,2.923 l 13.54,-4.069 v -47.859 c 0,-0.851 0.69,-1.542 1.542,-1.542 0.852,0 1.542,0.691 1.542,1.542 V -1.477 C 1.098,-0.796 0.651,-0.196 0,0"
       style="fill:#231f20;fill-opacity:1;fill-rule:nonzero;stroke:none"
       transform="matrix(9.4629144,0,0,-9.4629144,317.90652,481.80657)"
       clip-path="url(#clipPath13)" />
    <path
       id="path14"
       d="m 0,0 -12.585,8.234 c 0.299,0.762 0.468,1.588 0.468,2.456 0,3.73 -3.022,6.753 -6.752,6.753 -3.73,0 -6.753,-3.023 -6.753,-6.753 0,-3.729 3.023,-6.752 6.753,-6.752 1.747,0 3.334,0.669 4.533,1.757 l 11.95,-7.819 v -62.793 c 0,-0.851 0.69,-1.541 1.542,-1.541 0.852,0 1.542,0.69 1.542,1.541 V -1.291 C 0.698,-0.77 0.436,-0.285 0,0"
       style="fill:#231f20;fill-opacity:1;fill-rule:nonzero;stroke:none"
       transform="matrix(9.4629144,0,0,-9.4629144,360.854,345.21228)"
       clip-path="url(#clipPath15)" />
    <path
       id="path16"
       d="m 0,0 c 0,3.729 -3.023,6.753 -6.753,6.753 -3.729,0 -6.753,-3.024 -6.753,-6.753 0,-3.198 2.225,-5.871 5.211,-6.569 V -91.23 c 0,-0.852 0.69,-1.542 1.542,-1.542 0.851,0 1.542,0.69 1.542,1.542 V -6.569 C -2.226,-5.871 0,-3.198 0,0"
       style="fill:#231f20;fill-opacity:1;fill-rule:nonzero;stroke:none"
       transform="matrix(9.4629144,0,0,-9.4629144,456.296,96.2051)"
       clip-path="url(#clipPath17)" />
    <path
       id="path18"
       d="m 0,0 c -3.729,0 -6.753,-3.024 -6.753,-6.753 0,-1.872 0.763,-3.565 1.993,-4.789 l -12.25,-18.665 c -0.164,-0.251 -0.253,-0.545 -0.253,-0.846 v -58.573 c 0,-0.852 0.691,-1.542 1.542,-1.542 0.853,0 1.542,0.69 1.542,1.542 v 58.112 l 12.047,18.357 c 0.671,-0.223 1.386,-0.349 2.132,-0.349 3.729,0 6.753,3.023 6.753,6.753 C 6.753,-3.024 3.729,0 0,0"
       style="fill:#231f20;fill-opacity:1;fill-rule:nonzero;stroke:none"
       transform="matrix(9.4629144,0,0,-9.4629144,580.36049,111.38456)"
       clip-path="url(#clipPath19)" />
    <path
       id="path20"
       d="m 0,0 c -3.73,0 -6.753,-3.023 -6.753,-6.753 0,-0.682 0.102,-1.339 0.291,-1.96 l -17.155,-9.843 c -0.479,-0.275 -0.774,-0.785 -0.774,-1.337 v -50.453 c 0,-0.851 0.69,-1.542 1.542,-1.542 0.851,0 1.542,0.691 1.542,1.542 v 49.56 l 16.395,9.408 c 1.232,-1.307 2.975,-2.128 4.912,-2.128 3.729,0 6.753,3.024 6.753,6.753 C 6.753,-3.023 3.729,0 0,0"
       style="fill:#231f20;fill-opacity:1;fill-rule:nonzero;stroke:none"
       transform="matrix(9.4629144,0,0,-9.4629144,686.8126,293.83334)"
       clip-path="url(#clipPath21)" />
  </g>
</svg>
